<?xml version="1.0" encoding="UTF-8" standalone="no"?>
<!DOCTYPE svg PUBLIC "-//W3C//DTD SVG 1.1//EN" "http://www.w3.org/Graphics/SVG/1.1/DTD/svg11.dtd">
<svg width="100%" height="100%" viewBox="0 0 26 26" version="1.1" xmlns="http://www.w3.org/2000/svg" xmlns:xlink="http://www.w3.org/1999/xlink" xml:space="preserve" xmlns:serif="http://www.serif.com/" style="fill-rule:evenodd;clip-rule:evenodd;stroke-linejoin:round;stroke-miterlimit:1.5;">
    <g transform="matrix(1,0,0,1,-11040.5,-8160.18)">
        <g transform="matrix(1.5,0,0,1.05469,11003.2,7855.83)">
            <g transform="matrix(0.699416,0,0,0.994725,-7684.53,-7787.36)">
                <rect x="11022.6" y="8118.76" width="24.783" height="24.783" style="fill:none;"/>
                <g transform="matrix(1.42976,0,0,1.0053,10987.1,7828.65)">
                    <g transform="matrix(0.641188,0,0,0.816306,-7052.62,-6367.8)">
                        <rect x="11041.4" y="8164.01" width="20.424" height="17.208" style="fill:rgb(24,25,28);fill-opacity:0.73;stroke:rgb(101,16,247);stroke-width:2.19px;"/>
                    </g>
                    <g transform="matrix(0.798119,0,0,1.09834,-8790.04,-8675.13)">
                        <path d="M11063.6,8172.39L11058.6,8172.39C11057.3,8172.39 11056.3,8173.46 11056.3,8174.77C11056.3,8174.77 11056.3,8174.77 11056.3,8174.77C11056.3,8176.09 11057.3,8177.15 11058.6,8177.15C11060.7,8177.15 11063.6,8177.15 11063.6,8177.15L11063.6,8172.39Z" style="fill:none;stroke:rgb(247,97,16);stroke-width:1.7px;"/>
                    </g>
                    <g transform="matrix(0.925858,0,0,1.31678,-10206,-10460)">
                        <circle cx="11062.2" cy="8174.17" r="0.867" style="fill:rgb(247,97,16);"/>
                    </g>
                    <g transform="matrix(0.710744,0,0,1.01084,-7823.3,-7955.14)">
                        <path d="M11050.3,8161.43C11050.3,8159.21 11052.1,8157.41 11054.4,8157.41C11056.6,8157.41 11058.4,8159.21 11058.4,8161.43" style="fill:none;stroke:rgb(247,97,16);stroke-width:1.88px;"/>
                    </g>
                </g>
            </g>
        </g>
    </g>
</svg>
