<?xml version="1.0" encoding="UTF-8"?>
<!DOCTYPE svg  PUBLIC '-//W3C//DTD SVG 1.1//EN'  'http://www.w3.org/Graphics/SVG/1.1/DTD/svg11.dtd'>
<svg clip-rule="evenodd" fill-rule="evenodd" stroke-linejoin="round" stroke-miterlimit="1.5" version="1.1" viewBox="0 0 26 26" xml:space="preserve" xmlns="http://www.w3.org/2000/svg">
    <g transform="translate(-11040 -8160.2)">
        <g transform="matrix(1.5 0 0 1.0547 11003 7855.8)">
            <g transform="matrix(.69942 0 0 .99472 -7684.5 -7787.4)">
                <rect x="11023" y="8118.8" width="24.783" height="24.783" fill="none"/>
                <g transform="matrix(1.4298 0 0 1.0053 10987 7828.6)">
                    <g transform="matrix(.64119 0 0 .81631 -7052.6 -6367.8)">
                        <rect x="11041" y="8164" width="20.424" height="17.208" fill="none" stroke="#6510f7" stroke-width="2.19px"/>
                    </g>
                    <g transform="matrix(.79812 0 0 1.0983 -8790 -8675.1)">
                        <path d="m11064 8172.4h-5c-1.3 0-2.3 1.07-2.3 2.38 0 1.32 1 2.38 2.3 2.38h5v-4.76z" fill="none" stroke="#f76110" stroke-width="1.7px"/>
                    </g>
                    <g transform="matrix(.92586 0 0 1.3168 -10206 -10460)">
                        <circle cx="11062" cy="8174.2" r=".867" fill="#f76110"/>
                    </g>
                    <g transform="matrix(.71074 0 0 1.0108 -7823.3 -7955.1)">
                        <path d="m11050 8161.4c0-2.22 1.8-4.02 4.1-4.02 2.2 0 4 1.8 4 4.02" fill="none" stroke="#f76110" stroke-width="1.88px"/>
                    </g>
                </g>
            </g>
        </g>
    </g>
</svg>
