<?xml version="1.0" encoding="UTF-8"?>
<!DOCTYPE svg  PUBLIC '-//W3C//DTD SVG 1.1//EN'  'http://www.w3.org/Graphics/SVG/1.1/DTD/svg11.dtd'>
<svg clip-rule="evenodd" fill-rule="evenodd" stroke-linejoin="round" stroke-miterlimit="2" version="1.1" viewBox="0 0 262 427" xml:space="preserve" xmlns="http://www.w3.org/2000/svg"><rect width="261.98" height="426.89" fill="none"/><g fill="none" stroke="url(#a)" stroke-width="5px"><path d="m89.976 279.99c-0-5.404-4.254-9.04-9.495-8.117l-63.038 11.114c-5.24 0.924-9.495 6.061-9.495 11.464v119.06c-0 5.403 4.255 9.04 9.495 8.116l63.038-11.114c5.241-0.924 9.495-6.061 9.495-11.464v-119.06z"/><path d="m254.03 13.379c-0-5.403-4.255-9.04-9.495-8.116l-63.038 11.113c-5.241 0.924-9.495 6.061-9.495 11.465v119.06c-0 5.403 4.254 9.04 9.495 8.116l63.038-11.113c5.24-0.924 9.495-6.061 9.495-11.465v-119.06z"/><path d="m100.24 41.191c-2.434-5.36-8.968-8.908-14.583-7.918l-67.541 11.907c-5.614 0.99-8.197 6.146-5.763 11.506l149.38 329c2.434 5.36 8.968 8.908 14.583 7.918l67.541-11.907c5.614-0.99 8.197-6.146 5.763-11.506l-149.38-329z"/></g><defs><linearGradient id="a" x2="1" gradientTransform="matrix(239.1 -324.04 324.04 239.1 11.442 335.55)" gradientUnits="userSpaceOnUse"><stop stop-color="#f76110" offset="0"/><stop stop-color="#6510f7" offset="1"/></linearGradient></defs></svg>
