<?xml version="1.0" encoding="UTF-8" standalone="no"?><!DOCTYPE svg PUBLIC "-//W3C//DTD SVG 1.1//EN" "http://www.w3.org/Graphics/SVG/1.1/DTD/svg11.dtd"><svg width="100%" height="100%" viewBox="0 0 262 427" version="1.1" xmlns="http://www.w3.org/2000/svg" xmlns:xlink="http://www.w3.org/1999/xlink" xml:space="preserve" xmlns:serif="http://www.serif.com/" style="fill-rule:evenodd;clip-rule:evenodd;stroke-linejoin:round;stroke-miterlimit:2;"><rect id="Artboard1" x="0" y="0" width="261.981" height="426.889" style="fill:none;"/><g><g><path d="M89.976,279.988c-0,-5.404 -4.254,-9.04 -9.495,-8.117l-63.038,11.114c-5.24,0.924 -9.495,6.061 -9.495,11.464l-0,119.062c-0,5.403 4.255,9.04 9.495,8.116l63.038,-11.114c5.241,-0.924 9.495,-6.061 9.495,-11.464l-0,-119.061Z" style="fill:none;stroke:url(#_Linear1);stroke-width:5px;"/><path d="M254.033,13.379c-0,-5.403 -4.255,-9.04 -9.495,-8.116l-63.038,11.113c-5.241,0.924 -9.495,6.061 -9.495,11.465l-0,119.061c-0,5.403 4.254,9.04 9.495,8.116l63.038,-11.113c5.24,-0.924 9.495,-6.061 9.495,-11.465l-0,-119.061Z" style="fill:none;stroke:url(#_Linear2);stroke-width:5px;"/><path d="M100.245,41.191c-2.434,-5.36 -8.968,-8.908 -14.583,-7.918l-67.541,11.907c-5.614,0.99 -8.197,6.146 -5.763,11.506l149.378,328.999c2.434,5.36 8.968,8.908 14.583,7.918l67.541,-11.907c5.614,-0.99 8.197,-6.146 5.763,-11.506l-149.378,-328.999Z" style="fill:none;stroke:url(#_Linear3);stroke-width:5px;"/></g></g><defs><linearGradient id="_Linear1" x1="0" y1="0" x2="1" y2="0" gradientUnits="userSpaceOnUse" gradientTransform="matrix(239.098,-324.036,324.036,239.098,11.4418,335.554)"><stop offset="0" style="stop-color:#f76110;stop-opacity:1"/><stop offset="1" style="stop-color:#6510f7;stop-opacity:1"/></linearGradient><linearGradient id="_Linear2" x1="0" y1="0" x2="1" y2="0" gradientUnits="userSpaceOnUse" gradientTransform="matrix(239.098,-324.036,324.036,239.098,11.4418,335.554)"><stop offset="0" style="stop-color:#f76110;stop-opacity:1"/><stop offset="1" style="stop-color:#6510f7;stop-opacity:1"/></linearGradient><linearGradient id="_Linear3" x1="0" y1="0" x2="1" y2="0" gradientUnits="userSpaceOnUse" gradientTransform="matrix(239.098,-324.036,324.036,239.098,11.4418,335.554)"><stop offset="0" style="stop-color:#f76110;stop-opacity:1"/><stop offset="1" style="stop-color:#6510f7;stop-opacity:1"/></linearGradient></defs></svg>