<?xml version="1.0" encoding="UTF-8" standalone="no"?>
<!DOCTYPE svg PUBLIC "-//W3C//DTD SVG 1.1//EN" "http://www.w3.org/Graphics/SVG/1.1/DTD/svg11.dtd">
<svg width="100%" height="100%" viewBox="0 0 26 26" version="1.1" xmlns="http://www.w3.org/2000/svg" xmlns:xlink="http://www.w3.org/1999/xlink" xml:space="preserve" xmlns:serif="http://www.serif.com/" style="fill-rule:evenodd;clip-rule:evenodd;stroke-linejoin:round;stroke-miterlimit:2;">
    <g transform="matrix(1,0,0,1,-11043.3,-8111.95)">
        <g transform="matrix(1.5,0,0,1.05469,11003.2,7855.83)">
            <g transform="matrix(0.699416,0,0,0.994725,-7682.66,-7833.09)">
                <rect x="11022.6" y="8118.76" width="24.783" height="24.783" style="fill:none;"/>
                <g transform="matrix(1.0358,0,0,0.728296,10552.2,7761.59)">
                    <g transform="matrix(0.22205,-0.055695,-1.78405e-18,0.200269,-4641.12,902.022)">
                        <path d="M23021.3,4363.35C23021.3,4356.55 23017.9,4351.04 23013.7,4351.04L22963.5,4351.04C22959.3,4351.04 22955.9,4356.55 22955.9,4363.35L22955.9,4451.27C22955.9,4458.06 22959.3,4463.58 22963.5,4463.58L23013.7,4463.58C23017.9,4463.58 23021.3,4458.06 23021.3,4451.27L23021.3,4363.35ZM23013,4364.31L22964.9,4364.31C22964.5,4364.31 22964.2,4364.95 22964.2,4365.65L22964.2,4450.31L23012.3,4450.31C23012.7,4450.31 23013,4449.66 23013,4448.96L23013,4364.31Z" style="fill:rgb(101,16,247);"/>
                    </g>
                    <g transform="matrix(0.22205,-0.055695,-1.78405e-18,0.200269,-4635.98,908.241)">
                        <path d="M23021.3,4363.35C23021.3,4356.55 23017.9,4351.04 23013.7,4351.04L22963.5,4351.04C22959.3,4351.04 22955.9,4356.55 22955.9,4363.35L22955.9,4451.27C22955.9,4458.06 22959.3,4463.58 22963.5,4463.58L23013.7,4463.58C23017.9,4463.58 23021.3,4458.06 23021.3,4451.27L23021.3,4363.35ZM23013,4364.31L22964.9,4364.31C22964.5,4364.31 22964.2,4364.95 22964.2,4365.65L22964.2,4450.31L23012.3,4450.31C23012.7,4450.31 23013,4449.66 23013,4448.96L23013,4364.31Z" style="fill:rgb(247,97,16);"/>
                    </g>
                </g>
            </g>
        </g>
    </g>
</svg>
