<?xml version="1.0" encoding="UTF-8"?>
<!DOCTYPE svg  PUBLIC '-//W3C//DTD SVG 1.1//EN'  'http://www.w3.org/Graphics/SVG/1.1/DTD/svg11.dtd'>
<svg clip-rule="evenodd" fill-rule="evenodd" stroke-linejoin="round" stroke-miterlimit="2" version="1.1" viewBox="0 0 26 26" xml:space="preserve" xmlns="http://www.w3.org/2000/svg">
    <g transform="translate(-11043 -8112)">
        <g transform="matrix(1.5 0 0 1.0547 11003 7855.8)">
            <g transform="matrix(.69942 0 0 .99472 -7682.7 -7833.1)">
                <rect x="11023" y="8118.8" width="24.783" height="24.783" fill="none"/>
                <g transform="matrix(1.0358 0 0 .7283 10552 7761.6)">
                    <g transform="matrix(.22205 -.055695 -1.784e-18 .20027 -4641.1 902.02)">
                        <path d="m23021 4363.4c0-6.8-3.4-12.31-7.6-12.31h-50.2c-4.2 0-7.6 5.51-7.6 12.31v87.92c0 6.79 3.4 12.31 7.6 12.31h50.2c4.2 0 7.6-5.52 7.6-12.31v-87.92zm-8.3 0.96h-48.1c-0.4 0-0.7 0.64-0.7 1.34v84.66h48.1c0.4 0 0.7-0.65 0.7-1.35v-84.65z" fill="#6510f7"/>
                    </g>
                    <g transform="matrix(.22205 -.055695 -1.784e-18 .20027 -4636 908.24)">
                        <path d="m23021 4363.4c0-6.8-3.4-12.31-7.6-12.31h-50.2c-4.2 0-7.6 5.51-7.6 12.31v87.92c0 6.79 3.4 12.31 7.6 12.31h50.2c4.2 0 7.6-5.52 7.6-12.31v-87.92zm-8.3 0.96h-48.1c-0.4 0-0.7 0.64-0.7 1.34v84.66h48.1c0.4 0 0.7-0.65 0.7-1.35v-84.65z" fill="#f76110"/>
                    </g>
                </g>
            </g>
        </g>
    </g>
</svg>
