<?xml version="1.0" encoding="UTF-8"?>
<!DOCTYPE svg  PUBLIC '-//W3C//DTD SVG 1.1//EN'  'http://www.w3.org/Graphics/SVG/1.1/DTD/svg11.dtd'>
<svg version="1.1" viewBox="0 0 109 127" xml:space="preserve" xmlns="http://www.w3.org/2000/svg">
    <g transform="translate(-486.54 -11516)">
        <g transform="matrix(1 0 0 9.2051 0 1353.8)">
            <g transform="matrix(6.0054 0 0 .6524 468.53 1102.6)">
                <path d="m10.076 11c0.6 0 1.086 0.45 1.075 1 0 0.55-0.474 1-1.075 1-0.59 0-1.076-0.45-1.076-1s0.475-1 1.076-1zm3.848 0c0.601 0 1.076 0.45 1.076 1s-0.475 1-1.076 1c-0.59 0-1.075-0.45-1.075-1s0.474-1 1.075-1zm4.967-9c1.163 0 2.109 0.966 2.109 2.163v18.837l-2.211-1.995-1.245-1.176-1.317-1.25 0.546 1.943h-11.664c-1.163 0-2.109-0.966-2.109-2.163v-14.196c0-1.197 0.946-2.163 2.109-2.163h13.782zm-3.97 13.713c2.273-0.073 3.148-1.596 3.148-1.596 0-3.381-1.482-6.122-1.482-6.122-1.48-1.133-2.89-1.102-2.89-1.102l-0.144 0.168c1.749 0.546 2.561 1.334 2.561 1.334-0.955-0.538-2.007-0.881-3.096-1.008-0.691-0.078-1.388-0.071-2.077 0.02-0.062 0-0.114 0.011-0.175 0.021-0.36 0.032-1.235 0.168-2.335 0.662-0.38 0.178-0.607 0.305-0.607 0.305s0.854-0.83 2.705-1.376l-0.103-0.126s-1.409-0.031-2.89 1.103c0 0-1.481 2.74-1.481 6.121 0 0 0.864 1.522 3.137 1.596 0 0 0.38-0.472 0.69-0.871-1.307-0.4-1.8-1.24-1.8-1.24s0.102 0.074 0.287 0.179c0.01 0.01 0.02 0.021 0.041 0.031 0.031 0.022 0.062 0.032 0.093 0.053 0.257 0.147 0.514 0.262 0.75 0.357 0.422 0.168 0.926 0.336 1.513 0.452 0.879 0.172 1.783 0.176 2.664 0.01 0.513-0.092 1.013-0.243 1.491-0.451 0.36-0.137 0.761-0.337 1.183-0.62 0 0-0.514 0.861-1.862 1.25 0.309 0.399 0.68 0.85 0.68 0.85h-1e-3z"/>
            </g>
        </g>
    </g>
</svg>
