<?xml version="1.0" encoding="UTF-8" standalone="no"?>
<!DOCTYPE svg PUBLIC "-//W3C//DTD SVG 1.1//EN" "http://www.w3.org/Graphics/SVG/1.1/DTD/svg11.dtd">
<svg width="100%" height="100%" viewBox="0 0 117 117" version="1.1" xmlns="http://www.w3.org/2000/svg" xmlns:xlink="http://www.w3.org/1999/xlink" xml:space="preserve" >
    <g transform="matrix(1,0,0,1,-300,-11515.8)">
        <g transform="matrix(1,0,0,9.20507,0,1353.83)">
            <g transform="matrix(5.84064,0,0,0.634502,288.319,1102.69)">
                <path d="M12,22C6.477,22 2,17.523 2,12C2,6.477 6.477,2 12,2C17.523,2 22,6.477 22,12C22,17.523 17.523,22 12,22ZM8.89,13.17L8.903,13.163L9.773,16.033C9.885,16.344 10.039,16.4 10.226,16.374C10.414,16.349 10.513,16.248 10.636,16.13L11.824,14.982L14.374,16.87C14.84,17.127 15.175,16.994 15.291,16.438L16.948,8.616C17.131,7.888 16.811,7.596 16.246,7.828L6.513,11.588C5.849,11.854 5.853,12.226 6.393,12.391L8.89,13.171L8.89,13.17Z"/>
            </g>
        </g>
    </g>
</svg>
