<?xml version="1.0" encoding="UTF-8"?>
<!DOCTYPE svg  PUBLIC '-//W3C//DTD SVG 1.1//EN'  'http://www.w3.org/Graphics/SVG/1.1/DTD/svg11.dtd'>
<svg version="1.1" viewBox="0 0 120 97" xml:space="preserve" xmlns="http://www.w3.org/2000/svg">
    <g transform="translate(-664.37 -11526)">
        <g transform="matrix(1 0 0 9.2051 0 1353.8)">
            <g transform="matrix(5.8406 0 0 .6345 653.98 1102.7)">
                <path d="m22.162 5.656c-0.763 0.338-1.573 0.559-2.402 0.658 0.874-0.522 1.528-1.345 1.84-2.314-0.82 0.488-1.719 0.83-2.656 1.015-0.79-0.846-1.898-1.326-3.055-1.326-2.294 0-4.182 1.887-4.182 4.182 0 0.322 0.037 0.644 0.111 0.958-3.361-0.168-6.497-1.758-8.62-4.37-0.372 0.638-0.567 1.364-0.566 2.103 0 1.45 0.738 2.731 1.86 3.481-0.664-0.021-1.313-0.2-1.894-0.523v0.052c0 1.983 1.411 3.708 3.355 4.101-0.616 0.167-1.263 0.192-1.89 0.072 0.546 1.7 2.122 2.872 3.907 2.905-1.751 1.375-3.98 1.999-6.191 1.732 1.911 1.229 4.137 1.882 6.41 1.88 7.693 0 11.9-6.373 11.9-11.9 0-0.18-5e-3 -0.362-0.013-0.54 0.819-0.592 1.526-1.325 2.087-2.165l-1e-3 -1e-3z"/>
            </g>
        </g>
    </g>
</svg>
