<?xml version="1.0" encoding="UTF-8" standalone="no"?><!DOCTYPE svg PUBLIC "-//W3C//DTD SVG 1.1//EN" "http://www.w3.org/Graphics/SVG/1.1/DTD/svg11.dtd"><svg width="100%" height="100%" viewBox="0 0 208 92" version="1.1" xmlns="http://www.w3.org/2000/svg" xmlns:xlink="http://www.w3.org/1999/xlink" xml:space="preserve" style="fill-rule:evenodd;clip-rule:evenodd;stroke-linejoin:round;stroke-miterlimit:2;"><g><g><g><path d="M92.456,38.582l1.594,-4.761l7.26,-0l1.603,4.761l3.734,0l-6.808,-19.31l-4.318,-0l-6.798,19.31l3.733,0Zm2.537,-7.571l2.612,-7.779l0.151,-0l2.611,7.779l-5.374,-0Z" style="fill-opacity:0.9;fill-rule:nonzero;"/><rect x="109.042" y="19.272" width="3.413" height="19.311" style="fill-opacity:0.9;fill-rule:nonzero;"/><path d="M122.375,38.865c3.375,0 5.695,-1.65 6.298,-4.167l-3.187,-0.359c-0.462,1.226 -1.593,1.867 -3.064,1.867c-2.206,0 -3.668,-1.452 -3.696,-3.932l10.089,0l-0,-1.046c-0,-5.083 -3.055,-7.317 -6.619,-7.317c-4.149,-0 -6.855,3.045 -6.855,7.515c-0,4.544 2.668,7.439 7.034,7.439Zm-3.64,-8.891c0.104,-1.848 1.471,-3.404 3.508,-3.404c1.961,-0 3.281,1.433 3.3,3.404l-6.808,-0Z" style="fill-opacity:0.9;fill-rule:nonzero;"/><path d="M131.7,44.013l3.414,0l-0,-7.713l0.141,0c0.537,1.056 1.659,2.537 4.149,2.537c3.413,-0 5.968,-2.706 5.968,-7.477c0,-4.828 -2.63,-7.449 -5.978,-7.449c-2.555,-0 -3.62,1.537 -4.139,2.583l-0.198,0l-0,-2.395l-3.357,0l0,19.914Zm3.348,-12.672c-0,-2.81 1.206,-4.63 3.403,-4.63c2.273,0 3.442,1.933 3.442,4.63c-0,2.715 -1.188,4.695 -3.442,4.695c-2.178,0 -3.403,-1.885 -3.403,-4.695Z" style="fill-opacity:0.9;fill-rule:nonzero;"/><path d="M151.699,30.096c0,-2.093 1.301,-3.3 3.131,-3.3c1.791,0 2.847,1.141 2.847,3.093l0,8.693l3.413,0l0,-9.221c0,-3.498 -1.98,-5.45 -4.987,-5.45c-2.226,-0 -3.64,1.009 -4.309,2.649l-0.17,0l-0,-7.288l-3.338,-0l-0,19.31l3.413,0l0,-8.486Z" style="fill-opacity:0.9;fill-rule:nonzero;"/><path d="M164.561,38.582l3.413,0l-0,-14.483l-3.413,0l-0,14.483Zm1.716,-16.538c1.084,-0 1.97,-0.83 1.97,-1.848c0,-1.028 -0.886,-1.858 -1.97,-1.858c-1.094,0 -1.98,0.83 -1.98,1.858c-0,1.018 0.886,1.848 1.98,1.848Z" style="fill-opacity:0.9;fill-rule:nonzero;"/><path d="M180.712,32.491c0,2.207 -1.574,3.3 -3.083,3.3c-1.64,0 -2.734,-1.159 -2.734,-2.998l-0,-8.694l-3.414,0l0,9.222c0,3.479 1.981,5.45 4.828,5.45c2.169,-0 3.696,-1.141 4.356,-2.763l0.151,0l0,2.574l3.31,0l-0,-14.483l-3.414,0l0,8.392Z" style="fill-opacity:0.9;fill-rule:nonzero;"/><path d="M187.633,38.582l3.414,0l-0,-8.806c-0,-1.782 1.188,-2.989 2.659,-2.989c1.442,-0 2.432,0.971 2.432,2.461l0,9.334l3.348,0l-0,-9.033c-0,-1.631 0.971,-2.762 2.621,-2.762c1.377,-0 2.47,0.811 2.47,2.602l0,9.193l3.423,0l0,-9.721c0,-3.234 -1.867,-4.95 -4.526,-4.95c-2.103,-0 -3.705,1.037 -4.347,2.649l-0.151,0c-0.556,-1.64 -1.961,-2.649 -3.913,-2.649c-1.942,-0 -3.394,0.999 -3.997,2.649l-0.17,0l-0,-2.461l-3.263,0l0,14.483Z" style="fill-opacity:0.9;fill-rule:nonzero;"/></g><g><path d="M89.977,69.06l10.704,0l0,-2.484l-7.741,0l0,-4.465l7.126,-0l-0,-2.485l-7.126,0l0,-4.441l7.677,-0l0,-2.485l-10.64,0l-0,16.36Z" style="fill-opacity:0.6;fill-rule:nonzero;"/><path d="M105.882,56.79l-3.068,0l3.643,6.135l-3.739,6.135l3.068,0l2.572,-4.417l2.596,4.417l3.044,0l-3.763,-6.135l3.699,-6.135l-3.06,0l-2.516,4.53l-2.476,-4.53Z" style="fill-opacity:0.6;fill-rule:nonzero;"/><path d="M116.171,73.662l2.892,-0l-0,-6.535l0.119,0c0.456,0.895 1.406,2.149 3.515,2.149c2.892,0 5.057,-2.293 5.057,-6.335c-0,-4.09 -2.229,-6.311 -5.065,-6.311c-2.165,0 -3.067,1.303 -3.507,2.189l-0.167,0l-0,-2.029l-2.844,0l-0,16.872Zm2.836,-10.737c-0,-2.38 1.022,-3.922 2.883,-3.922c1.926,0 2.916,1.638 2.916,3.922c0,2.301 -1.006,3.979 -2.916,3.979c-1.845,-0 -2.883,-1.598 -2.883,-3.979Z" style="fill-opacity:0.6;fill-rule:nonzero;"/><rect x="130.223" y="52.7" width="2.892" height="16.36" style="fill-opacity:0.6;fill-rule:nonzero;"/><path d="M141.438,69.3c3.595,0 5.88,-2.532 5.88,-6.327c-0,-3.802 -2.285,-6.343 -5.88,-6.343c-3.594,0 -5.879,2.541 -5.879,6.343c-0,3.795 2.285,6.327 5.879,6.327Zm0.016,-2.317c-1.989,0 -2.963,-1.773 -2.963,-4.018c-0,-2.244 0.974,-4.042 2.963,-4.042c1.957,0 2.932,1.798 2.932,4.042c-0,2.245 -0.975,4.018 -2.932,4.018Z" style="fill-opacity:0.6;fill-rule:nonzero;"/><path d="M149.762,69.06l2.892,0l0,-7.213c0,-1.558 1.174,-2.66 2.764,-2.66c0.487,-0 1.095,0.088 1.342,0.168l0,-2.661c-0.263,-0.048 -0.719,-0.079 -1.038,-0.079c-1.406,-0 -2.581,0.798 -3.028,2.22l-0.128,0l0,-2.045l-2.804,0l0,12.27Z" style="fill-opacity:0.6;fill-rule:nonzero;"/><path d="M163.606,69.3c2.86,0 4.825,-1.398 5.337,-3.531l-2.701,-0.303c-0.391,1.038 -1.35,1.581 -2.596,1.581c-1.869,0 -3.107,-1.23 -3.131,-3.331l8.547,0l0,-0.887c0,-4.305 -2.588,-6.199 -5.607,-6.199c-3.515,0 -5.808,2.581 -5.808,6.367c-0,3.851 2.261,6.303 5.959,6.303Zm-3.083,-7.533c0.088,-1.566 1.246,-2.884 2.971,-2.884c1.662,0 2.78,1.214 2.796,2.884l-5.767,0Z" style="fill-opacity:0.6;fill-rule:nonzero;"/><path d="M171.507,69.06l2.892,0l-0,-7.213c-0,-1.558 1.174,-2.66 2.764,-2.66c0.487,-0 1.094,0.088 1.342,0.168l-0,-2.661c-0.264,-0.048 -0.719,-0.079 -1.039,-0.079c-1.406,-0 -2.58,0.798 -3.027,2.22l-0.128,0l-0,-2.045l-2.804,0l-0,12.27Z" style="fill-opacity:0.6;fill-rule:nonzero;"/></g></g><g><path d="M49.894,8.252c-0,-1.014 -0.801,-1.696 -1.79,-1.522l-11.825,2.085c-0.989,0.175 -1.79,1.14 -1.79,2.154l-0,22.368c-0,1.016 0.801,1.699 1.79,1.525l11.825,-2.086c0.989,-0.174 1.79,-1.139 1.79,-2.155l-0,-22.369Z" style="fill-opacity:0.6;"/><path d="M19.124,58.339c0,-1.014 -0.801,-1.696 -1.79,-1.522l-11.825,2.086c-0.989,0.174 -1.79,1.139 -1.79,2.153l0,22.369c0,1.016 0.801,1.698 1.79,1.524l11.825,-2.086c0.989,-0.174 1.79,-1.139 1.79,-2.155l0,-22.369Z" style="fill-opacity:0.9;"/><path d="M21.003,13.463c-0.456,-1.007 -1.684,-1.67 -2.744,-1.483l-12.669,2.235c-1.06,0.187 -1.549,1.152 -1.092,2.158l28.055,61.81c0.457,1.006 1.687,1.675 2.747,1.488l12.669,-2.234c1.06,-0.187 1.546,-1.158 1.089,-2.165l-28.055,-61.809Z" style="fill-opacity:0.9;"/></g></g></svg>