<?xml version="1.0" encoding="UTF-8"?>
<!DOCTYPE svg  PUBLIC '-//W3C//DTD SVG 1.1//EN'  'http://www.w3.org/Graphics/SVG/1.1/DTD/svg11.dtd'>
<svg clip-rule="evenodd" fill-rule="evenodd" stroke-linejoin="round" stroke-miterlimit="2" version="1.1" viewBox="0 0 241 53" xml:space="preserve" xmlns="http://www.w3.org/2000/svg">
    <g transform="translate(-125.92 -197.92)">
        <g transform="translate(0 173.58)">
            <g transform="translate(-25.246 -17.318)">
                <g transform="matrix(.098335 0 0 .098335 -4263.5 -2513.6)">
                    <g transform="matrix(1.6056 0 0 1 4471.6 18748)">
                        <g transform="matrix(249.12 0 0 400 25529 7634)">
                            <path d="m0.033-0.279c0 0.173 0.112 0.288 0.252 0.288 0.088 0 0.151-0.042 0.184-0.09v0.081h0.141v-0.554h-0.141v0.079c-0.033-0.046-0.094-0.088-0.183-0.088-0.141 0-0.253 0.111-0.253 0.284zm0.436 2e-3c0 0.105-0.07 0.163-0.147 0.163-0.075 0-0.146-0.06-0.146-0.165s0.071-0.161 0.146-0.161c0.077 0 0.147 0.058 0.147 0.163z" fill="#20203e" fill-rule="nonzero"/>
                        </g>
                        <g transform="matrix(249.12 0 0 400 25693 7634)">
                            <rect x=".069" y="-.74" width=".14" height=".74" fill="#20203e" fill-rule="nonzero"/>
                        </g>
                        <g transform="matrix(249.12 0 0 400 25757 7634)">
                            <path d="m0.307-0.448c0.072 0 0.13 0.046 0.132 0.119h-0.263c0.011-0.076 0.064-0.119 0.131-0.119zm0.263 0.274h-0.151c-0.018 0.037-0.051 0.067-0.111 0.067-0.07 0-0.126-0.046-0.133-0.128h0.405c3e-3 -0.018 4e-3 -0.036 4e-3 -0.054 0-0.165-0.113-0.274-0.273-0.274-0.164 0-0.278 0.111-0.278 0.286 0 0.174 0.117 0.286 0.278 0.286 0.137 0 0.229-0.081 0.259-0.183z" fill="#20203e" fill-rule="nonzero"/>
                        </g>
                        <g transform="matrix(249.12 0 0 400 25906 7634)">
                            <path d="m0.209-0.474v-0.08h-0.14v0.818h0.14v-0.343c0.034 0.045 0.096 0.088 0.183 0.088 0.142 0 0.253-0.115 0.253-0.288s-0.111-0.284-0.253-0.284c-0.086 0-0.15 0.042-0.183 0.089zm0.293 0.195c0 0.105-0.071 0.165-0.147 0.165-0.075 0-0.146-0.058-0.146-0.163s0.071-0.163 0.146-0.163c0.076 0 0.147 0.056 0.147 0.161z" fill="#20203e" fill-rule="nonzero"/>
                        </g>
                        <g transform="matrix(249.12 0 0 400 26070 7634)">
                            <path d="m0.069 0h0.14v-0.306c0-0.089 0.049-0.137 0.125-0.137 0.074 0 0.123 0.048 0.123 0.137v0.306h0.14v-0.325c0-0.153-0.091-0.237-0.216-0.237-0.074 0-0.136 0.03-0.172 0.077v-0.255h-0.14v0.74z" fill="#20203e" fill-rule="nonzero"/>
                        </g>
                        <g transform="matrix(249.12 0 0 400 26230 7634)">
                            <rect x=".069" y="-.554" width=".14" height=".554" fill="#20203e" fill-rule="nonzero"/>
                        </g>
                        <g transform="matrix(249.12 0 0 400 26294 7634)">
                            <path d="m0.592-0.554h-0.141v0.305c0 0.089-0.048 0.137-0.124 0.137-0.074 0-0.123-0.048-0.123-0.137v-0.305h-0.14v0.325c0 0.152 0.093 0.236 0.222 0.236 0.069 0 0.13-0.03 0.165-0.077v0.07h0.141v-0.554z" fill="#20203e" fill-rule="nonzero"/>
                        </g>
                        <g transform="matrix(249.12 0 0 400 26453 7634)">
                            <path d="m0.844 0h0.14v-0.325c0-0.153-0.094-0.237-0.227-0.237-0.081 0-0.154 0.043-0.19 0.106-0.038-0.069-0.109-0.106-0.195-0.106-0.069 0-0.128 0.029-0.163 0.075v-0.067h-0.14v0.554h0.14v-0.306c0-0.088 0.049-0.134 0.125-0.134 0.074 0 0.123 0.046 0.123 0.134v0.306h0.14v-0.306c0-0.088 0.049-0.134 0.124-0.134 0.074 0 0.123 0.046 0.123 0.134v0.306z" fill="#20203e" fill-rule="nonzero"/>
                        </g>
                    </g>
                    <g transform="matrix(.87018 -.15344 5.5511e-17 .6001 26639 26981)">
                        <path d="m23021 4364.7c0-7.56-4.1-13.69-9.1-13.69h-47.1c-5.1 0-9.2 6.13-9.2 13.69v85.16c0 7.55 4.1 13.69 9.2 13.69h47.1c5 0 9.1-6.14 9.1-13.69v-85.16z" fill="#20203e"/>
                    </g>
                </g>
                <g transform="matrix(.85764 0 0 .85792 -142.76 -10.008)">
                    <g transform="matrix(.18262 -.032196 -1.4374e-34 .17937 -3849.5 59.581)">
                        <path d="m23021 4359c0-4.38-3.4-7.94-7.6-7.94h-50.2c-4.2 0-7.6 3.56-7.6 7.94v96.65c0 4.39 3.4 7.95 7.6 7.95h50.2c4.2 0 7.6-3.56 7.6-7.95v-96.65z" fill="#20203e"/>
                    </g>
                    <g transform="matrix(.18262 -.032196 -1.4374e-34 .17937 -3825.6 20.762)">
                        <path d="m23021 4359c0-4.38-3.4-7.94-7.6-7.94h-50.2c-4.2 0-7.6 3.56-7.6 7.94v96.65c0 4.39 3.4 7.95 7.6 7.95h50.2c4.2 0 7.6-3.56 7.6-7.95v-96.65z" fill="#ff4d44"/>
                    </g>
                    <g transform="matrix(.19566 -.034496 .20467 .45077 -5039.4 -1103.1)">
                        <path d="m23021 4354.2c0-1.73-3.4-3.13-7.6-3.13h-50.2c-4.2 0-7.6 1.4-7.6 3.13v106.27c0 1.73 3.4 3.14 7.6 3.14h50.2c4.2 0 7.6-1.41 7.6-3.14v-106.27z" fill="#20203e"/>
                    </g>
                </g>
            </g>
        </g>
    </g>
</svg>
