<?xml version="1.0" encoding="UTF-8"?>
<!DOCTYPE svg  PUBLIC '-//W3C//DTD SVG 1.1//EN'  'http://www.w3.org/Graphics/SVG/1.1/DTD/svg11.dtd'>
<svg version="1.1" viewBox="0 0 117 117" xml:space="preserve" xmlns="http://www.w3.org/2000/svg">
    <g transform="translate(-300 -11516)">
        <g transform="matrix(1 0 0 9.2051 0 1353.8)">
            <g transform="matrix(5.8406 0 0 .6345 288.32 1102.7)">
                <path d="m12 22c-5.523 0-10-4.477-10-10s4.477-10 10-10 10 4.477 10 10-4.477 10-10 10zm-3.11-8.83 0.013-7e-3 0.87 2.87c0.112 0.311 0.266 0.367 0.453 0.341 0.188-0.025 0.287-0.126 0.41-0.244l1.188-1.148 2.55 1.888c0.466 0.257 0.801 0.124 0.917-0.432l1.657-7.822c0.183-0.728-0.137-1.02-0.702-0.788l-9.733 3.76c-0.664 0.266-0.66 0.638-0.12 0.803l2.497 0.78v-1e-3z"/>
            </g>
        </g>
    </g>
</svg>
