<?xml version="1.0" encoding="UTF-8"?>
<!DOCTYPE svg  PUBLIC '-//W3C//DTD SVG 1.1//EN'  'http://www.w3.org/Graphics/SVG/1.1/DTD/svg11.dtd'>
<svg version="1.1" viewBox="0 0 117 117" xml:space="preserve" xmlns="http://www.w3.org/2000/svg">
    <g transform="translate(-853.16 -11516)">
        <g transform="matrix(1 0 0 9.2051 0 1353.8)">
            <g transform="matrix(5.8406 0 0 .6345 841.48 1102.7)">
                <path d="m12 22c-5.523 0-10-4.477-10-10s4.477-10 10-10 10 4.477 10 10-4.477 10-10 10zm6.67-10c-0.029-0.78-0.678-1.407-1.459-1.407-0.377 0-0.739 0.146-1.011 0.407-1.137-0.773-2.475-1.201-3.85-1.23l0.65-3.12 2.14 0.45c0.054 0.505 0.486 0.893 0.994 0.893 0.549 0 1-0.451 1-1s-0.451-1-1-1c-0.355 0-0.685 0.19-0.864 0.497l-2.45-0.49c-0.022-5e-3 -0.044-7e-3 -0.066-7e-3 -0.147 0-0.274 0.104-0.304 0.247l-0.74 3.47c-1.392 0.021-2.748 0.449-3.9 1.23-0.271-0.255-0.629-0.397-1-0.397-0.801 0-1.46 0.659-1.46 1.46 0 0.57 0.333 1.089 0.85 1.327-0.011 0.146-0.011 0.294 0 0.44 0 2.24 2.61 4.06 5.83 4.06s5.83-1.82 5.83-4.06c0.011-0.146 0.011-0.294 0-0.44 0.503-0.25 0.819-0.769 0.81-1.33zm-10 1c0-0.549 0.451-1 1-1s1 0.451 1 1-0.451 1-1 1-1-0.451-1-1zm5.81 2.75c-0.709 0.535-1.583 0.807-2.47 0.77-0.887 0.037-1.761-0.235-2.47-0.77-0.04-0.048-0.061-0.109-0.061-0.171 0-0.148 0.122-0.27 0.27-0.27 0.062 0 0.123 0.021 0.171 0.061 0.601 0.441 1.335 0.663 2.08 0.63 0.746 0.041 1.483-0.175 2.09-0.61 0.053-0.059 0.129-0.094 0.209-0.094 0.153 0 0.28 0.127 0.28 0.28 0 0.083-0.036 0.161-0.099 0.214v-0.04zm-0.18-1.71c-0.549 0-1-0.451-1-1s0.451-1 1-1 1 0.451 1 1c1e-3 0.013 1e-3 0.027 1e-3 0.04 0 0.549-0.452 1-1 1h-0.011l0.01-0.04z"/>
            </g>
        </g>
    </g>
</svg>
